<?xml version="1.0" encoding="UTF-8"?>
<svg width="1200pt" height="1200pt" version="1.1" viewBox="0 0 1200 1200" xmlns="http://www.w3.org/2000/svg">
 <path d="m340.78 340.78c-20.391-20.391-52.781-20.391-73.219 0l-221.95 222c-20.391 20.391-20.391 52.781 0 73.219l222 222c9.6094 9.6094 24 15.609 37.219 15.609s26.391-4.7812 37.219-15.609c20.391-20.391 20.391-52.781 0-73.219l-186.05-184.78 184.78-184.78c20.438-20.438 20.438-54 0-74.438z"/>
 <path d="m932.39 340.78c-20.391-20.391-52.781-20.391-73.219 0-20.391 20.391-20.391 52.781 0 73.219l184.82 186-184.78 184.78c-20.391 20.391-20.391 52.781 0 73.219 9.6094 9.6094 24 15.609 37.219 15.609s26.391-4.7812 37.219-15.609l222-222c20.391-20.391 20.391-52.781 0-73.219z"/>
 <path d="m718.78 330c-26.391-12-57.609 0-68.391 26.391l-194.39 444c-12 26.391 0 57.609 26.391 68.391 7.2188 3.6094 14.391 4.7812 20.391 4.7812 20.391 0 39.609-12 48-31.219l194.39-444c12.047-25.125 0.046875-56.344-26.391-68.344z"/>
</svg>
